<?xml version="1.0" encoding="UTF-8"?>
<svg width="86px" height="20px" viewBox="0 0 86 20" version="1.1" xmlns="http://www.w3.org/2000/svg" xmlns:xlink="http://www.w3.org/1999/xlink">
    <!-- Generator: Sketch 51.1 (57501) - http://www.bohemiancoding.com/sketch -->
    <title>g--logo</title>
    <desc>Created with Sketch.</desc>
    <defs></defs>
    <g id="Design__03" stroke="none" stroke-width="1" fill="none" fill-rule="evenodd">
        <g id="02--detail" transform="translate(-52.000000, -66.000000)" fill="#FFFFFF">
            <g id="nav" transform="translate(52.000000, 61.000000)">
                <g id="g--logo" transform="translate(0.000000, 4.000000)">
                    <path d="M74.7369139,15.6923828 C75.2769557,15.6992188 75.6717271,15.5864269 75.9212401,15.3540039 C76.1707531,15.1215809 76.2955077,14.7456081 76.2955077,14.2260742 L76.2955077,8.29931641 C76.3091796,7.85497825 76.2134774,7.57299865 76.0083983,7.45336914 C75.8033191,7.33373964 75.393167,7.28076165 74.7779295,7.29443359 L74.7779295,6.95605469 C75.3042994,6.86035108 75.8836393,6.70483506 76.5159667,6.48950195 C77.148294,6.27416885 77.6763649,6.0673838 78.1001952,5.86914062 L78.1001952,7.50976562 C78.5445333,7.07909941 79.0503876,6.71508938 79.6177733,6.41772461 C80.1851589,6.12035984 80.7969692,5.96484382 81.4532225,5.95117188 C82.4239305,5.98535173 83.0853008,6.29980171 83.4373534,6.89453125 C83.7894059,7.48926079 83.9551757,8.14208629 83.9346678,8.85302734 L83.9346678,14.2260742 C83.9209959,14.6704124 84.0030263,15.0241686 84.1807616,15.2873535 C84.3584968,15.5505384 84.7242158,15.6855468 85.2779295,15.6923828 L85.2779295,16 L80.6124022,16 L80.6124022,15.6923828 C81.2276397,15.6923828 81.6377918,15.5693372 81.842871,15.3232422 C82.0479501,15.0771472 82.1436523,14.7114282 82.1299803,14.2260742 L82.1299803,9.2734375 C82.1368163,8.65136408 82.0000989,8.1489277 81.7198241,7.76611328 C81.4395492,7.38329887 80.9883819,7.18505866 80.3663085,7.17138672 C79.8399386,7.18505866 79.3921892,7.30126844 79.0230467,7.52001953 C78.6539043,7.73877062 78.3462901,7.99853365 78.1001952,8.29931641 L78.1001952,14.2260742 C78.0865232,14.7456081 78.1805164,15.1215809 78.3821776,15.3540039 C78.5838388,15.5864269 78.9649385,15.6992188 79.5254881,15.6923828 L79.5254881,16 L74.7369139,16 L74.7369139,15.6923828 Z" id="g--logo__n"></path>
                    <path d="M72.7499999,6.83300781 C72.5244128,7.08593876 72.1911642,7.81395883 71.750244,9.01708984 C71.3093238,10.2202209 70.8188502,11.5993575 70.2788085,13.154541 C69.7387667,14.7097246 69.20386,16.1435481 68.6740721,17.4560547 C68.1442843,18.7685613 67.6674825,19.6538063 67.2436522,20.1118164 C66.9018536,20.4331071 66.5480974,20.6535639 66.1823729,20.7731934 C65.8166484,20.8928229 65.5141612,20.9526367 65.2749022,20.9526367 C64.857908,20.9389648 64.5502938,20.8312998 64.3520507,20.6296387 C64.1538075,20.4279775 64.0512694,20.1596696 64.0444335,19.824707 C64.0512694,19.5786121 64.128173,19.370118 64.2751464,19.1992188 C64.4221198,19.0283195 64.6425765,18.9428711 64.9365233,18.9428711 C65.2919938,18.9497071 65.544921,19.0009761 65.6953124,19.0966797 C65.8457038,19.1923833 66.0541978,19.2504882 66.3208007,19.2709961 C66.6762712,19.29834 66.9924301,19.0983908 67.269287,18.6711426 C67.5461438,18.2438943 67.9443332,17.4082093 68.4638671,16.1640625 C67.4726512,13.86034 66.6899442,12.0505437 66.1157225,10.7346191 C65.5415009,9.41869459 65.1074232,8.46338188 64.8134764,7.86865234 C64.5195297,7.27392281 64.293946,6.90307691 64.1367186,6.75610352 C63.9794913,6.60913012 63.8222663,6.54931627 63.6650389,6.57666016 L63.6650389,6.24853516 L68.0434569,6.24853516 L68.0434569,6.57666016 C67.537595,6.58349613 67.2111823,6.65185482 67.0642089,6.78173828 C66.9172355,6.91162174 66.8505857,7.055175 66.8642577,7.21240234 C66.8642577,7.37646566 66.9565419,7.72167706 67.1411132,8.24804688 C67.3256844,8.77441669 67.552977,9.38451802 67.8229979,10.0783691 C68.0930188,10.7722203 68.3613267,11.4438444 68.6279296,12.0932617 C68.8945325,12.742679 69.1201161,13.2861306 69.3046874,13.7236328 C69.646486,12.7939407 70.0703099,11.5925367 70.5761718,10.1193848 C71.0820337,8.64623287 71.3588864,7.67724842 71.4067382,7.21240234 C71.4204101,7.03466708 71.3520514,6.88598693 71.20166,6.76635742 C71.0512687,6.64672792 70.7402366,6.58349613 70.2685546,6.57666016 L70.2685546,6.24853516 L73.3754882,6.24853516 L73.3754882,6.57666016 C73.2387687,6.57666016 73.1242679,6.59374983 73.0319823,6.62792969 C72.9396967,6.66210955 72.8457035,6.73046824 72.7499999,6.83300781 Z" id="g--logo__y"></path>
                    <path d="M58.8685546,16.2563477 L58.499414,16.2563477 L56.0179687,10.1552734 L53.3724608,16.2563477 L52.9930663,16.2563477 C52.111226,13.993641 51.429348,12.2077702 50.947412,10.8986816 C50.465476,9.58959306 50.098048,8.62744448 49.8451171,8.01220703 C49.5921861,7.39696958 49.3768563,7.0039071 49.199121,6.83300781 C49.0213857,6.66210852 48.8128917,6.59374983 48.5736327,6.62792969 L48.5736327,6.24853516 L52.4085937,6.24853516 L52.4085937,6.57666016 C51.9710915,6.5903321 51.7096195,6.67065356 51.6241698,6.81762695 C51.5387202,6.96460034 51.5062498,7.10986256 51.5267577,7.25341797 C51.5267577,7.42431726 51.5848626,7.69433409 51.7010741,8.06347656 C51.8172856,8.43261903 51.9779286,8.88036846 52.1830077,9.40673828 C52.3880869,9.9331081 52.6273423,10.5278287 52.9007812,11.190918 C53.17422,11.8540072 53.4715803,12.5717735 53.792871,13.3442383 L55.5565429,9.14013672 C55.1600565,7.90966182 54.8319348,7.16113415 54.5721679,6.89453125 C54.3124009,6.62792835 53.994533,6.52197238 53.6185546,6.57666016 L53.6185546,6.24853516 L58.2020507,6.24853516 L58.2020507,6.57666016 C57.6141571,6.58349613 57.2518561,6.66210862 57.1151366,6.8125 C56.9784172,6.96289138 56.9203123,7.13720604 56.9408202,7.33544922 C56.9408202,7.52002045 57.0245596,7.84985114 57.1920409,8.32495117 C57.3595222,8.8000512 57.5628893,9.3383759 57.8021483,9.93994141 C58.0414074,10.5415069 58.2840807,11.1293917 58.5301757,11.7036133 C58.7762707,12.2778349 58.9745109,12.7529278 59.1249022,13.1289062 C59.5077167,12.2539019 59.9486302,11.1413642 60.4476562,9.79125977 C60.9466821,8.44115536 61.2201169,7.58154481 61.2679687,7.21240234 C61.3021485,7.03466708 61.2713871,6.88598693 61.1756835,6.76635742 C61.0799799,6.64672792 60.7313506,6.58349613 60.1297851,6.57666016 L60.1297851,6.24853516 L63.0316405,6.24853516 L63.0316405,6.62792969 C62.8880851,6.59374983 62.7479498,6.63647401 62.6112304,6.75610352 C62.4745109,6.87573302 62.2796887,7.21923544 62.0267577,7.78662109 C61.7738268,8.35400674 61.397854,9.30590152 60.898828,10.642334 C60.3998021,11.9787664 59.7230511,13.8500856 58.8685546,16.2563477 Z" id="g--logo__w"></path>
                    <path d="M44.6179687,16.2563477 L44.6179687,14.8925781 C44.2761701,15.2822285 43.8438014,15.5949695 43.3208495,15.8308105 C42.7978977,16.0666516 42.208304,16.1914062 41.5520507,16.2050781 C40.1916923,16.1503904 39.1851106,15.6582078 38.5322753,14.7285156 C37.87944,13.7988235 37.5564452,12.7221741 37.5632812,11.4985352 C37.5701172,9.98094944 37.9683065,8.68897018 38.7578613,7.62255859 C39.547416,6.55614701 40.6872972,5.99902368 42.177539,5.95117188 C42.7380887,5.95117188 43.2097636,6.04003817 43.5925781,6.21777344 C43.9753925,6.3955087 44.3171859,6.64159999 44.6179687,6.95605469 L44.6179687,3.34667969 C44.6589845,3.13476457 44.6111334,2.91259882 44.474414,2.68017578 C44.3376946,2.44775274 43.8796913,2.32128917 43.1003906,2.30078125 L43.1003906,2.00341797 C43.7292999,1.85986256 44.2932592,1.71801828 44.7922851,1.57788086 C45.291311,1.43774344 45.8347626,1.24463014 46.4226562,0.998535156 L46.4226562,14.0620117 C46.4089842,14.4243182 46.4858878,14.6635736 46.6533691,14.7797852 C46.8208504,14.8959967 47.1506811,14.9506836 47.642871,14.9438477 C47.642871,14.9506836 47.6479979,14.9951168 47.6582519,15.0771484 C47.6685058,15.1591801 47.6633789,15.2241209 47.642871,15.2719727 C47.0754854,15.436036 46.5679221,15.593261 46.1201659,15.7436523 C45.6724098,15.8940437 45.1716824,16.0649404 44.6179687,16.2563477 Z M44.6179687,8.97607422 C44.6179687,8.45654037 44.4180195,7.93701432 44.0181152,7.41748047 C43.6182108,6.89794662 43.0183633,6.61767599 42.2185546,6.57666016 C41.2751905,6.61084001 40.5642601,6.98339488 40.0857421,7.69433594 C39.6072241,8.40527699 39.3679687,9.25292477 39.3679687,10.2373047 C39.3542967,11.4472717 39.5918432,12.5461376 40.0806152,13.5339355 C40.5693871,14.5217335 41.3948183,15.0463864 42.5569335,15.1079102 C43.0286156,15.0942382 43.4456036,14.998536 43.8079101,14.8208008 C44.1702166,14.6430655 44.4402334,14.4448253 44.6179687,14.2260742 L44.6179687,8.97607422 Z" id="g--logo__d"></path>
                    <path d="M33.8947265,14.2260742 C33.8810546,14.7114282 33.9665029,15.0771472 34.1510742,15.3232422 C34.3356454,15.5693372 34.7252899,15.6923828 35.3200195,15.6923828 L35.3200195,16 L30.5724609,16 L30.5724609,15.6923828 C31.1535185,15.6992188 31.5534168,15.5864269 31.7721679,15.3540039 C31.990919,15.1215809 32.0934571,14.7456081 32.0797851,14.2260742 L32.0797851,3.56201172 C32.0934571,3.01513398 32.0045908,2.66992259 31.8131835,2.52636719 C31.6217763,2.38281178 31.2492215,2.32128896 30.6955078,2.34179688 L30.6955078,2.00341797 C31.3175812,1.87353451 31.8815404,1.72656332 32.3874023,1.5625 C32.8932642,1.39843668 33.3957006,1.21045028 33.8947265,0.998535156 L33.8947265,14.2260742 Z" id="g--logo__l"></path>
                    <path d="M23.6226562,5.95117188 C25.1812578,5.99902368 26.3604452,6.5100049 27.1602539,7.48413086 C27.9600626,8.45825682 28.3633788,9.598138 28.3702148,10.9038086 C28.3907227,12.2846749 28.0079141,13.5065865 27.2217773,14.5695801 C26.4356406,15.6325737 25.1402434,16.1948239 23.3355469,16.2563477 C21.7359295,16.2084959 20.5311075,15.7009326 19.7210449,14.7336426 C18.9109823,13.7663526 18.505957,12.5615306 18.505957,11.1191406 C18.512793,9.69042254 18.9554155,8.48218267 19.8338379,7.49438477 C20.7122602,6.50658686 21.9751871,5.99218771 23.6226562,5.95117188 Z M20.4336914,10.4013672 C20.4131835,11.4677788 20.6404761,12.5905703 21.1155761,13.7697754 C21.5906762,14.9489805 22.4263612,15.5898432 23.6226562,15.6923828 C24.8052793,15.651367 25.5794415,15.2395059 25.945166,14.4567871 C26.3108905,13.6740684 26.4766603,12.7563529 26.4424804,11.7036133 C26.4561524,10.6645456 26.215188,9.56738859 25.7195801,8.41210938 C25.2239721,7.25683016 24.3848692,6.63134813 23.2022461,6.53564453 C22.1905223,6.58349633 21.472756,6.99706642 21.0489258,7.77636719 C20.6250955,8.55566796 20.4200194,9.43065921 20.4336914,10.4013672 Z" id="g--logo__o"></path>
                    <path d="M12.5200195,10.1552734 C12.5336915,9.57421584 12.3850113,9.17260853 12.0739746,8.95043945 C11.7629379,8.72827037 11.183598,8.62402337 10.3359375,8.63769531 L10.3359375,8.21728516 L16.5498047,8.21728516 L16.5498047,8.63769531 C15.8730435,8.63085934 15.4064954,8.74023325 15.1501465,8.96582031 C14.8937975,9.19140738 14.7724609,9.57421605 14.7861328,10.1142578 L14.7861328,14.5644531 C14.1503874,15.0019553 13.3300831,15.3933088 12.3251953,15.7385254 C11.3203075,16.083742 10.1650456,16.2700194 8.859375,16.2973633 C6.30955756,16.2426755 4.35962589,15.5283272 3.00952148,14.1542969 C1.65941708,12.7802666 0.977539131,11.0405379 0.963867188,8.93505859 C0.998047046,6.665516 1.73119401,4.8266672 3.16333008,3.41845703 C4.59546615,2.01024687 6.52147228,1.28564474 8.94140625,1.24462891 C10.199225,1.27880876 11.1066867,1.42577995 11.6638184,1.68554688 C12.2209501,1.9453138 12.6874981,2.09228499 13.0634766,2.12646484 C13.3095715,2.11962887 13.49414,2.04614328 13.6171875,1.90600586 C13.740235,1.76586844 13.8222654,1.58984481 13.8632812,1.37792969 L14.1914062,1.37792969 L14.4477539,5.78710938 L13.9863281,5.78710938 C13.7128893,4.89843306 13.2155798,4.06445702 12.4943848,3.28515625 C11.7731898,2.50585548 10.715339,2.0922854 9.32080078,2.04443359 C7.16063373,2.12646525 5.62769008,2.84935842 4.72192383,4.21313477 C3.81615758,5.57691112 3.37695299,7.10985477 3.40429688,8.81201172 C3.40429688,10.5962003 3.87768081,12.1513606 4.82446289,13.4775391 C5.77124497,14.8037176 7.20165059,15.5009762 9.11572266,15.5693359 C9.8540076,15.5625 10.510251,15.454835 11.0844727,15.2463379 C11.6586943,15.0378408 12.1372051,14.7797867 12.5200195,14.472168 L12.5200195,10.1552734 Z" id="g--logo__g"></path>
                </g>
            </g>
        </g>
    </g>
</svg>