<?xml version="1.0" encoding="UTF-8"?>
<svg width="242px" height="75px" viewBox="0 0 242 75" version="1.1" xmlns="http://www.w3.org/2000/svg" xmlns:xlink="http://www.w3.org/1999/xlink">
    <!-- Generator: Sketch 52.3 (67297) - http://www.bohemiancoding.com/sketch -->
    <title>Group 28</title>
    <desc>Created with Sketch.</desc>
    <defs>
        <polygon id="path-1" points="0.0002 0.3604 69.3202 0.3604 69.3202 75 0.0002 75"></polygon>
    </defs>
    <g id="Symbols" stroke="none" stroke-width="1" fill="none" fill-rule="evenodd">
        <g id="Logo-Complete" transform="translate(0.000000, -1.000000)">
            <g id="Group-28">
                <path d="M34.6602,2 C53.2502,2 68.3202,18.261 68.3202,38.32 C68.3202,58.379 53.2502,74.64 34.6602,74.64 C16.0702,74.64 1.0002,58.379 1.0002,38.32 C1.0002,18.261 16.0702,2 34.6602,2" id="Fill-1" fill="#9FC46C"></path>
                <g id="Group-5" transform="translate(0.000000, 0.639600)">
                    <mask id="mask-2" fill="white">
                        <use xlink:href="#path-1"></use>
                    </mask>
                    <g id="Clip-4"></g>
                    <path d="M34.6602,2.3604 C16.6512,2.3604 2.0002,18.2044 2.0002,37.6804 C2.0002,57.1554 16.6512,73.0004 34.6602,73.0004 C52.6692,73.0004 67.3202,57.1554 67.3202,37.6804 C67.3202,18.2044 52.6692,2.3604 34.6602,2.3604 M34.6602,75.0004 C15.5482,75.0004 0.0002,58.2584 0.0002,37.6804 C0.0002,17.1024 15.5482,0.3604 34.6602,0.3604 C53.7712,0.3604 69.3202,17.1024 69.3202,37.6804 C69.3202,58.2584 53.7712,75.0004 34.6602,75.0004" id="Fill-3" fill="#FFFFFF" mask="url(#mask-2)"></path>
                </g>
                <path d="M55.3198,33.1401 C54.0098,35.5601 52.6298,37.9501 51.2098,40.2901 C49.7898,42.6301 48.2998,44.9401 46.6998,47.1601 C45.1368,49.3791 43.4258,51.4901 41.5798,53.4801 C40.6728,54.4571 39.6858,55.3561 38.6298,56.1701 C37.6378,56.9681 36.5198,57.5941 35.3198,58.0191 C34.2398,58.4251 33.0498,58.4251 31.9698,58.0191 C30.8678,57.5601 29.9098,56.8101 29.1998,55.8491 C27.6698,53.7191 26.5418,51.3261 25.8698,48.7901 C24.4638,43.8621 23.6078,38.7951 23.3048,33.6811 L29.1898,33.5001 L36.0098,33.2401 C40.5598,33.0801 45.0998,32.8501 49.6498,32.7801 L50.0598,32.7801 L49.9898,32.3901 C49.5638,29.8231 49.0498,27.2701 48.4498,24.7301 C47.9028,22.1391 46.9338,19.6561 45.5798,17.3801 C45.1808,16.7821 44.6508,16.2831 44.0298,15.9201 C43.3478,15.5161 42.5258,15.4221 41.7698,15.6601 C41.0718,15.8841 40.4308,16.2551 39.8898,16.7501 C39.3768,17.2071 38.9048,17.7091 38.4798,18.2501 C37.2368,19.9251 36.1828,21.7281 35.3198,23.6231 C34.7428,22.6271 34.1298,21.6531 33.4398,20.7301 C32.3948,19.2121 30.9848,17.9811 29.3398,17.1501 C28.4008,16.7221 27.3458,16.6161 26.3398,16.8501 C25.3828,17.1011 24.5078,17.5981 23.7998,18.2901 C22.5378,19.5631 21.5208,21.0581 20.7998,22.7001 C19.4158,25.8241 18.3668,29.0851 17.6698,32.4301 C17.2798,34.0901 16.9998,35.7801 16.7298,37.4301 C16.4598,39.0801 16.2298,40.7501 16.0898,42.4301 L16.2798,42.4601 C16.9398,39.1601 17.7368,35.9001 18.6698,32.6801 C19.5268,29.4701 20.6958,26.3521 22.1598,23.3701 C22.8428,21.9381 23.7738,20.6381 24.9098,19.5301 C25.8438,18.4871 27.3478,18.1751 28.6198,18.7601 C29.9608,19.4891 31.1168,20.5151 31.9998,21.7601 C32.9818,23.0691 33.8708,24.4461 34.6598,25.8801 L35.5598,27.4801 L36.1998,25.7701 C37.0158,23.3801 38.1278,21.1031 39.5098,18.9901 C40.1228,17.9821 41.0108,17.1701 42.0698,16.6501 C43.0698,16.2301 44.1198,16.9101 44.8698,17.8601 C46.2978,19.9861 47.3148,22.3601 47.8698,24.8601 C48.4958,27.2201 48.8868,29.6431 49.2758,32.0611 C44.8568,32.1091 40.4388,31.9801 36.0198,31.9801 L29.1898,31.9201 L22.3698,31.9201 L21.4498,31.9201 L21.4498,32.8501 C21.6048,38.4501 22.4028,44.0131 23.8298,49.4301 C24.5718,52.2341 25.8298,54.8761 27.5398,57.2201 C28.5048,58.4611 29.7858,59.4181 31.2498,59.9901 C32.7828,60.5341 34.4588,60.5161 35.9798,59.9401 C37.3668,59.3961 38.6518,58.6221 39.7798,57.6501 C40.8788,56.7331 41.9018,55.7291 42.8398,54.6501 C44.6808,52.5451 46.3528,50.2991 47.8398,47.9301 C50.7948,43.2451 53.3598,38.3251 55.5098,33.2201 L55.3198,33.1401 Z" id="Fill-6" fill="#FFFFFF"></path>
                <g id="Group-27" transform="translate(88.000000, 29.639600)" fill="#272E66">
                    <polygon id="Fill-8" points="12.5283 17.71 12.5283 8.277 8.6873 12.544 7.7663 12.544 3.8583 8.277 3.8583 17.71 0.7363 17.71 0.7363 2.549 2.1063 2.549 8.2163 9.041 14.2803 2.549 15.6503 2.549 15.6503 17.71"></polygon>
                    <path d="M21.8271,12.1172 C21.8271,13.8242 22.9501,15.1942 24.6571,15.1942 C26.1621,15.1942 27.5991,13.9362 27.5771,11.8922 L27.5771,10.2752 C26.7681,9.4222 25.8251,8.8612 24.7241,8.8612 C22.9501,8.8612 21.8271,10.4102 21.8271,12.1172 M27.5771,7.6482 L27.5771,6.3672 L30.4301,6.3672 L30.4301,17.7102 L27.5771,17.7102 L27.5771,15.8012 C26.9031,17.0132 25.6231,18.0472 23.9381,18.0472 C21.2211,18.0472 18.8621,15.8902 18.8621,12.1172 C18.8621,8.3222 21.2211,6.0752 24.1401,6.0752 C25.3761,6.0752 26.7231,6.7042 27.5771,7.6482" id="Fill-10"></path>
                    <path d="M41.3232,6.4575 L41.3232,9.7135 C40.8062,9.3545 40.2452,9.1525 39.5712,9.1525 C38.2682,9.1525 37.4602,10.1185 36.7862,11.3755 L36.7862,17.7095 L33.9332,17.7095 L33.9332,6.3675 L36.7862,6.3675 L36.7862,8.5015 C37.5722,7.1535 38.6282,6.1435 39.9752,6.1435 C40.4922,6.1435 40.9192,6.2555 41.3232,6.4575" id="Fill-12"></path>
                    <path d="M43.7939,2.3921 C43.7939,1.3361 44.6699,0.4601 45.7709,0.4601 C46.8259,0.4601 47.7469,1.3361 47.7469,2.3921 C47.7469,3.4251 46.8259,4.3241 45.7709,4.3241 C44.6699,4.3241 43.7939,3.4251 43.7939,2.3921 Z M47.3879,17.5751 C47.3879,20.6751 45.9049,22.5171 43.3219,23.4371 L42.0649,20.9671 C43.6369,20.2251 44.5349,19.2821 44.5349,17.6871 L44.5349,8.7931 L42.7159,8.7931 L42.7159,6.3681 L47.3879,6.3681 L47.3879,17.5751 Z" id="Fill-14"></path>
                    <path d="M53.3174,12.0723 C53.3174,14.1383 54.7324,15.2843 56.3494,15.2843 C57.9664,15.2843 59.4044,14.1383 59.4044,12.0723 C59.4044,10.0063 57.9664,8.8383 56.3494,8.8383 C54.7324,8.8383 53.3174,10.0063 53.3174,12.0723 M62.4364,12.0723 C62.4364,15.4193 59.6514,18.0473 56.3494,18.0473 C53.0474,18.0473 50.2854,15.4193 50.2854,12.0723 C50.2854,8.7033 53.0474,6.0753 56.3494,6.0753 C59.6514,6.0753 62.4364,8.7033 62.4364,12.0723" id="Fill-16"></path>
                    <polygon id="Fill-18" points="65.132 17.71 67.985 17.71 67.985 1.539 65.132 1.539"></polygon>
                    <path d="M71.8926,2.3921 C71.8926,1.3361 72.7686,0.4601 73.8466,0.4601 C74.9246,0.4601 75.8236,1.3361 75.8236,2.3921 C75.8236,3.4251 74.9246,4.3241 73.8466,4.3241 C72.7686,4.3241 71.8926,3.4251 71.8926,2.3921 Z M75.4416,17.7101 L72.5886,17.7101 L72.5886,8.7931 L70.7696,8.7931 L70.7696,6.3681 L75.4416,6.3681 L75.4416,17.7101 Z" id="Fill-20"></path>
                    <path d="M79.1699,2.3921 C79.1699,1.3361 80.0459,0.4601 81.1469,0.4601 C82.2019,0.4601 83.1229,1.3361 83.1229,2.3921 C83.1229,3.4251 82.2019,4.3241 81.1469,4.3241 C80.0459,4.3241 79.1699,3.4251 79.1699,2.3921 Z M82.7639,17.5751 C82.7639,20.6751 81.2809,22.5171 78.6979,23.4371 L77.4409,20.9671 C79.0129,20.2251 79.9109,19.2821 79.9109,17.6871 L79.9109,8.7931 L78.0919,8.7931 L78.0919,6.3681 L82.7639,6.3681 L82.7639,17.5751 Z" id="Fill-21"></path>
                    <path d="M96.8018,10.7471 L96.8018,17.7101 L93.9488,17.7101 L93.9268,11.1291 C93.9268,9.6011 93.1408,8.8611 91.8608,8.8611 C90.8498,8.8611 89.9508,9.6241 89.2998,10.5221 L89.2998,17.7101 L86.4478,17.7101 L86.4478,6.3681 L89.2998,6.3681 L89.2998,7.9851 C89.9958,7.0641 91.2088,6.0761 92.7368,6.0761 C95.0498,6.0761 96.8018,7.6481 96.8018,10.7471" id="Fill-22"></path>
                    <polygon id="Fill-23" points="112.2998 17.8223 105.2918 2.6613 108.9528 2.6613 113.0638 12.6113 117.1958 2.6613 120.8578 2.6613 113.8498 17.8223"></polygon>
                    <polygon id="Fill-24" points="122.834 17.71 125.687 17.71 125.687 1.539 122.834 1.539"></polygon>
                    <path d="M139.1855,13.1279 C139.1855,16.1599 137.0065,18.0019 134.0645,18.0019 C131.1225,18.0019 128.9435,16.1599 128.9435,13.1279 L128.9435,6.3679 L131.8185,6.3679 L131.8405,12.6109 C131.8405,14.3629 132.7395,15.2389 134.0645,15.2389 C135.3895,15.2389 136.2885,14.3629 136.2885,12.6109 L136.2885,6.3679 L139.1855,6.3679 L139.1855,13.1279 Z" id="Fill-25"></path>
                    <path d="M144.6211,12.1172 C144.6211,13.8242 145.7441,15.1722 147.4511,15.1722 C148.9561,15.1722 150.3931,13.9362 150.3711,11.8922 L150.3711,10.2752 C149.5621,9.4222 148.6191,8.8832 147.5181,8.8832 C145.7441,8.8832 144.6211,10.4102 144.6211,12.1172 M150.3711,7.6482 L150.3711,6.3672 L153.2241,6.3672 L153.2241,17.4182 C153.2241,21.2592 150.2591,23.4372 146.9121,23.4372 C144.9131,23.4372 143.5881,22.8982 142.4421,22.2242 L142.4421,19.5292 C143.4531,20.0232 144.8231,20.8092 146.7321,20.8092 C148.7541,20.8092 150.3711,19.5522 150.3711,17.7772 L150.3711,15.8012 C149.6971,17.0132 148.4171,18.0472 146.7321,18.0472 C144.0151,18.0472 141.6561,15.8902 141.6561,12.1172 C141.6561,8.3222 144.0151,6.0752 146.9341,6.0752 C148.1701,6.0752 149.5171,6.7042 150.3711,7.6482" id="Fill-26"></path>
                </g>
            </g>
        </g>
    </g>
</svg>