<?xml version="1.0" encoding="UTF-8"?>
<svg width="68px" height="68px" viewBox="0 0 68 68" version="1.1" xmlns="http://www.w3.org/2000/svg" xmlns:xlink="http://www.w3.org/1999/xlink">
    <!-- Generator: Sketch 52.3 (67297) - http://www.bohemiancoding.com/sketch -->
    <title>Combined Shape</title>
    <desc>Created with Sketch.</desc>
    <g id="Inspiratie" stroke="none" stroke-width="1" fill="none" fill-rule="evenodd">
        <g transform="translate(-343.000000, -2250.000000)" fill="#FFFFFF" id="play">
            <g transform="translate(343.000000, 2250.000000)">
                <path d="M28.9474044,44.7486449 L43.9107838,34.4937325 L28.9474044,24.2388201 L28.9474044,44.7486449 Z M47.3518022,33.2808105 C48.5225488,34.1975108 47.8455925,35.4104328 47.3518022,35.7066545 L28.2986546,48.7407609 C27.7484513,49.2062521 26.1405037,49.1780405 26,47.527839 L26,21.459626 C26.126753,19.8094244 27.7064941,19.8094244 28.2986546,20.246704 L47.3518022,33.2808105 Z M34,65.0998 C51.1524796,65.0998 65.0997653,51.1525143 65.0997653,34.0000347 C65.0997653,16.8475551 51.1524796,2.90026939 34,2.90026939 C16.8475204,2.90026939 2.90023469,16.8475551 2.90023469,34.0000347 C2.90023469,51.1525143 16.8475204,65.0998 34,65.0998 Z M34,3.46938775e-05 C52.7482245,3.46938775e-05 68,15.2518102 68,34.0000347 C68,52.7482592 52.7482245,68.0000347 34,68.0000347 C15.2517755,68.0000347 0,52.7482592 0,34.0000347 C0,15.2518102 15.2517755,3.46938775e-05 34,3.46938775e-05 Z" id="Combined-Shape"></path>
            </g>
        </g>
    </g>
</svg>