<?xml version="1.0" encoding="UTF-8"?>
<svg width="40px" height="40px" viewBox="0 0 40 40" version="1.1" xmlns="http://www.w3.org/2000/svg" xmlns:xlink="http://www.w3.org/1999/xlink">
    <!-- Generator: Sketch 52.3 (67297) - http://www.bohemiancoding.com/sketch -->
    <title>Group</title>
    <desc>Created with Sketch.</desc>
    <defs>
        <polygon id="path-1" points="0.06 0.278 39.723 0.278 39.723 40.001 0.06 40.001"></polygon>
    </defs>
    <g id="Home" stroke="none" stroke-width="1" fill="none" fill-rule="evenodd">
        <g transform="translate(-1130.000000, -4607.000000)" id="Socials">
            <g transform="translate(976.000000, 4607.000000)">
                <g id="Group" transform="translate(154.000000, 0.000000)">
                    <path d="M19.976,23.949 C22.168,23.949 23.953,22.168 23.953,19.973 C23.953,19.109 23.672,18.309 23.203,17.656 C22.48,16.656 21.305,16 19.976,16 C18.652,16 17.476,16.652 16.754,17.656 C16.281,18.309 16.004,19.109 16,19.973 C16,22.168 17.785,23.949 19.976,23.949 Z" id="Fill-1" fill="#FFFFFF"></path>
                    <g id="Group-5">
                        <mask id="mask-2" fill="white">
                            <use xlink:href="#path-1"></use>
                        </mask>
                        <g id="Clip-3"></g>
                        <polygon id="Fill-2" fill="#FFFFFF" mask="url(#mask-2)" points="28.543 15.274 28.543 11.446 28.043 11.446 24.711 11.458 24.727 15.286"></polygon>
                        <path d="M19.859,0.278 C8.91,0.278 0,9.189 0,20.138 C0,31.091 8.91,40.001 19.859,40.001 C30.812,40.001 39.723,31.091 39.723,20.138 C39.723,9.189 30.812,0.278 19.859,0.278 Z M31.156,17.821 L31.156,27.071 C31.156,29.478 29.199,31.435 26.789,31.435 L12.93,31.435 C10.523,31.435 8.566,29.478 8.566,27.071 L8.566,13.212 C8.566,10.802 10.523,8.845 12.93,8.845 L26.789,8.845 C29.199,8.845 31.156,10.802 31.156,13.212 L31.156,17.821 Z" id="Fill-4" fill="#FFFFFF" mask="url(#mask-2)"></path>
                    </g>
                    <path d="M26.273,20.317 C26.273,23.723 23.504,26.496 20.093,26.496 C16.687,26.496 13.918,23.723 13.918,20.317 C13.918,19.5 14.082,18.715 14.371,18 L11,18 L11,27.25 C11,28.446 11.968,29.411 13.164,29.411 L27.023,29.411 C28.218,29.411 29.187,28.446 29.187,27.25 L29.187,18 L25.816,18 C26.105,18.715 26.273,19.5 26.273,20.317 Z" id="Fill-6" fill="#FFFFFF"></path>
                </g>
            </g>
        </g>
    </g>
</svg>