<?xml version="1.0" encoding="UTF-8"?>
<svg width="40px" height="40px" viewBox="0 0 40 40" version="1.1" xmlns="http://www.w3.org/2000/svg" xmlns:xlink="http://www.w3.org/1999/xlink">
    <!-- Generator: Sketch 52.3 (67297) - http://www.bohemiancoding.com/sketch -->
    <title>Group 2</title>
    <desc>Created with Sketch.</desc>
    <defs>
        <polygon id="path-1" points="0.06 0.278 39.723 0.278 39.723 40.001 0.06 40.001"></polygon>
    </defs>
    <g id="Home" stroke="none" stroke-width="1" fill="none" fill-rule="evenodd">
        <g transform="translate(-1028.000000, -4608.000000)" id="Socials">
            <g transform="translate(976.000000, 4607.000000)">
                <g id="Group-2" transform="translate(52.000000, 1.000000)">
                    <path d="M23.085,17 C21.386,17 20.625,17.934 20.199,18.59 L20.199,17.227 L17,17.227 C17.039,18.129 17,26.86 17,26.86 L20.199,26.86 L20.199,21.481 C20.199,21.192 20.218,20.903 20.304,20.7 C20.535,20.122 21.062,19.528 21.949,19.528 C23.105,19.528 23.57,20.411 23.57,21.704 L23.57,26.86 L26.773,26.86 L26.773,21.332 C26.773,18.375 25.191,17 23.085,17 Z" id="Fill-1" fill="#FFFFFF"></path>
                    <g id="Group-5">
                        <mask id="mask-2" fill="white">
                            <use xlink:href="#path-1"></use>
                        </mask>
                        <g id="Clip-3"></g>
                        <polygon id="Fill-2" fill="#FFFFFF" mask="url(#mask-2)" points="12.418 27.177 15.621 27.177 15.621 17.544 12.418 17.544"></polygon>
                        <path d="M19.859,0.278 C8.91,0.278 0,9.189 0,20.138 C0,31.091 8.91,40.001 19.859,40.001 C30.812,40.001 39.723,31.091 39.723,20.138 C39.723,9.189 30.812,0.278 19.859,0.278 Z M30.395,29.122 C30.395,29.966 29.691,30.649 28.824,30.649 L10.762,30.649 C9.898,30.649 9.195,29.966 9.195,29.122 L9.195,10.849 C9.195,10.005 9.898,9.317 10.762,9.317 L28.824,9.317 C29.691,9.317 30.395,10.005 30.395,10.849 L30.395,29.122 Z" id="Fill-4" fill="#FFFFFF" mask="url(#mask-2)"></path>
                    </g>
                    <path d="M13.809,13 C12.715,13 12,13.719 12,14.665 C12,15.59 12.696,16.329 13.77,16.329 L13.79,16.329 C14.907,16.329 15.602,15.59 15.602,14.665 C15.579,13.719 14.907,13 13.809,13 Z" id="Fill-6" fill="#FFFFFF"></path>
                </g>
            </g>
        </g>
    </g>
</svg>