<?xml version="1.0" encoding="UTF-8"?>
<svg width="41px" height="40px" viewBox="0 0 41 40" version="1.1" xmlns="http://www.w3.org/2000/svg" xmlns:xlink="http://www.w3.org/1999/xlink">
    <!-- Generator: Sketch 52.3 (67297) - http://www.bohemiancoding.com/sketch -->
    <title>Fill 1</title>
    <desc>Created with Sketch.</desc>
    <g id="Home" stroke="none" stroke-width="1" fill="none" fill-rule="evenodd">
        <g transform="translate(-1079.000000, -4608.000000)" fill="#FFFFFF" id="Socials">
            <g transform="translate(976.000000, 4607.000000)">
                <path d="M123.257,1 C112.308,1 103.398,9.911 103.398,20.86 C103.398,31.813 112.308,40.723 123.257,40.723 C134.21,40.723 143.121,31.813 143.121,20.86 C143.121,9.911 134.21,1 123.257,1 Z M128.199,21.559 L124.968,21.559 L124.968,33.079 L120.179,33.079 L120.179,21.559 L117.902,21.559 L117.902,17.489 L120.179,17.489 L120.179,14.856 C120.179,12.973 121.074,10.024 125.011,10.024 L128.558,10.039 L128.558,13.989 L125.984,13.989 C125.562,13.989 124.968,14.2 124.968,15.098 L124.968,17.493 L128.617,17.493 L128.199,21.559 Z" id="Fill-1"></path>
            </g>
        </g>
    </g>
</svg>