<?xml version="1.0" encoding="UTF-8"?>
<svg width="41px" height="40px" viewBox="0 0 41 40" version="1.1" xmlns="http://www.w3.org/2000/svg" xmlns:xlink="http://www.w3.org/1999/xlink">
    <!-- Generator: Sketch 52.3 (67297) - http://www.bohemiancoding.com/sketch -->
    <title>Fill 1</title>
    <desc>Created with Sketch.</desc>
    <g id="Home" stroke="none" stroke-width="1" fill="none" fill-rule="evenodd">
        <g transform="translate(-976.000000, -4607.000000)" fill="#FFFFFF" id="Socials">
            <g transform="translate(976.000000, 4607.000000)">
                <path d="M20.738,-2.13162821e-14 C9.789,-2.13162821e-14 0.879,8.911 0.879,19.86 C0.879,30.813 9.789,39.723 20.738,39.723 C31.691,39.723 40.602,30.813 40.602,19.86 C40.602,8.911 31.691,-2.13162821e-14 20.738,-2.13162821e-14 Z M29.602,15.317 C29.609,15.512 29.613,15.711 29.613,15.911 C29.613,21.95 25.016,28.914 16.606,28.914 C14.024,28.914 11.621,28.161 9.598,26.86 C9.957,26.903 10.32,26.926 10.688,26.926 C12.832,26.926 14.801,26.196 16.367,24.969 C14.367,24.93 12.68,23.61 12.098,21.793 C12.375,21.848 12.66,21.875 12.957,21.875 C13.371,21.875 13.777,21.821 14.16,21.715 C12.07,21.297 10.492,19.45 10.492,17.235 C10.492,17.215 10.492,17.196 10.496,17.176 C11.109,17.52 11.817,17.723 12.567,17.746 C11.34,16.93 10.531,15.528 10.531,13.942 C10.531,13.106 10.758,12.321 11.149,11.645 C13.402,14.411 16.774,16.231 20.57,16.422 C20.492,16.086 20.453,15.739 20.453,15.379 C20.453,12.856 22.5,10.809 25.024,10.809 C26.34,10.809 27.527,11.364 28.359,12.25 C29.402,12.047 30.383,11.668 31.266,11.141 C30.922,12.211 30.199,13.106 29.254,13.672 C30.18,13.563 31.063,13.317 31.879,12.954 C31.27,13.868 30.492,14.672 29.602,15.317 Z" id="Fill-1"></path>
            </g>
        </g>
    </g>
</svg>