<?xml version="1.0" encoding="UTF-8"?>
<svg width="109px" height="143px" viewBox="0 0 109 143" version="1.1" xmlns="http://www.w3.org/2000/svg" xmlns:xlink="http://www.w3.org/1999/xlink">
    <!-- Generator: Sketch 52.3 (67297) - http://www.bohemiancoding.com/sketch -->
    <title>Group</title>
    <desc>Created with Sketch.</desc>
    <g id="HR-Coaching" stroke="none" stroke-width="1" fill="none" fill-rule="evenodd">
        <g transform="translate(-426.000000, -1796.000000)" fill="#FFFFFF" id="Group-7">
            <g transform="translate(426.000000, 1796.000000)">
                <g id="Group">
                    <path d="M80.5074184,73.7507418 C83.1127596,73.7507418 85.2492582,75.8724036 85.2492582,78.495549 C85.2492582,81.1127596 83.1127596,83.2433234 80.5074184,83.2433234 C77.8872404,83.2433234 75.7537092,81.1127596 75.7537092,78.495549 C75.7537092,75.8724036 77.8872404,73.7507418 80.5074184,73.7507418 M80.5074184,88 C85.735905,88 90,83.7299703 90,78.495549 C90,73.264095 85.735905,69 80.5074184,69 C75.2670623,69 71,73.264095 71,78.495549 C71,83.7299703 75.2670623,88 80.5074184,88" id="Fill-1"></path>
                    <path d="M22.4955103,29 C23.145155,29 23.7791833,28.74401 24.2664168,28.2694919 L29.2668072,23.2651994 C30.2443976,22.2943105 30.2443976,20.7084211 29.2668072,19.7281667 C28.2923401,18.7572778 26.7088311,18.7572778 25.7312407,19.7281667 L20.7402202,24.7324592 C19.7532599,25.7033482 19.7532599,27.2767502 20.7402202,28.2694919 C21.2180839,28.74401 21.8646053,29 22.4955103,29" id="Fill-3"></path>
                    <path d="M101.946082,60.6443456 L93.5072177,52.2729309 C94.6217848,50.8906047 96.3371966,50.0504841 98.1787858,50.0504841 C101.501457,50.0504841 104.19925,52.7198035 104.19925,56.0087864 C104.19925,57.8379852 103.340042,59.5390805 101.946082,60.6443456 Z M97.9444563,101.747694 L96.9831047,102.468649 L96.9831047,112.019807 L53.7252858,112.019807 L53.7252858,105.537174 L52.869082,104.831115 C52.7609299,104.738762 52.6437652,104.643429 52.4364738,104.494471 L31.1004761,83.416977 L43.3276671,83.416977 L65.8953965,105.793381 C67.4335591,107.321686 69.4614102,108.090307 71.4922655,108.090307 C73.5111039,108.090307 75.5419592,107.321686 77.0921387,105.793381 L101.852952,81.2421967 C103.379097,83.6702048 104.19925,86.491461 104.19925,89.3752793 C104.19925,94.2759829 101.910032,98.7804595 97.9444563,101.747694 Z M48.9125192,138.230379 L101.792867,138.230379 L101.792867,116.78347 L48.9125192,116.78347 L48.9125192,138.230379 Z M22.4723453,72.6890537 C22.4723453,69.8499227 24.5062048,67.4755392 27.1919809,66.8826881 L28.1893832,66.7665012 C28.2825142,66.7545846 28.3906662,66.7307514 28.4807929,66.7307514 L52.5145836,66.7307514 C55.8372551,66.7307514 58.5230312,69.40305 58.5230312,72.6890537 C58.5230312,75.9780366 55.8372551,78.647356 52.5145836,78.647356 L28.4807929,78.647356 C25.1731425,78.647356 22.4723453,75.9780366 22.4723453,72.6890537 Z M14.7544943,48.3434305 L48.7502911,14.6402935 L103.282962,68.7208244 C104.493664,69.915464 104.493664,71.8727663 103.282962,73.0852808 L102.228479,74.1160671 L73.6883531,102.418003 C72.4776509,103.633497 70.5068801,103.633497 69.284161,102.418003 L50.1232214,83.416977 L52.5145836,83.416977 C58.4779679,83.416977 63.3357978,78.5967104 63.3357978,72.6890537 C63.3357978,66.7754387 58.4779679,61.9670887 52.5145836,61.9670887 L28.4958141,61.9670887 L14.7544943,48.3434305 Z M5.717789,39.3791647 C4.4950699,38.1726085 4.4950699,36.2182853 5.717789,35.0147083 L35.300381,5.67006943 C35.6068119,5.37513346 35.9583061,5.14275967 36.3218171,4.99082296 C36.4960621,4.92528164 36.6853282,4.93719824 36.8625774,4.88655267 C37.2951857,4.80909474 37.7187812,4.80909474 38.1423768,4.88655267 C38.3166218,4.93719824 38.5028836,4.92528164 38.6801328,4.99082296 C39.0466482,5.14275967 39.3981423,5.37513346 39.7015689,5.67006943 L45.3465055,11.2678944 L11.3627256,44.9769897 L5.717789,39.3791647 Z M62.1401167,14.3006703 C65.4507714,14.3006703 68.1485644,16.9699897 68.1485644,20.2589726 C68.1485644,22.0881714 67.2893564,23.7892667 65.8953965,24.8945318 L57.4565318,16.5231171 C58.5710988,15.1407909 60.2835064,14.3006703 62.1401167,14.3006703 Z M74.1449951,26.2172749 C77.4676667,26.2172749 80.1654597,28.8865943 80.1654597,32.1755772 C80.1654597,34.004776 79.3062517,35.7058713 77.9122918,36.8111364 L69.4734271,28.4397217 C70.5879941,27.0573955 72.3034059,26.2172749 74.1449951,26.2172749 Z M86.1618905,38.1338795 C89.484562,38.1338795 92.182355,40.8031989 92.182355,44.0921818 C92.182355,45.9213806 91.323147,47.6224759 89.9291871,48.727741 L81.4903224,40.3563263 C82.6078937,38.9740001 84.317297,38.1338795 86.1618905,38.1338795 Z M109,70.8926256 C109,68.7982823 108.176843,66.8320425 106.686748,65.342467 L105.334847,64.0197239 C107.62707,62.0177343 109,59.1160411 109,56.0087864 C109,50.1011297 104.139166,45.2838423 98.1787858,45.2838423 C97.7461775,45.2838423 97.3105651,45.3255504 96.8869695,45.376196 C96.9350371,44.9531565 96.9831047,44.5271379 96.9831047,44.0921818 C96.9831047,38.1845251 92.1222705,33.3672377 86.1618905,33.3672377 C85.7292822,33.3672377 85.2936698,33.4089458 84.8700742,33.4595914 C84.9181418,33.0365519 84.9662094,32.6105333 84.9662094,32.1755772 C84.9662094,26.2679205 80.1053752,21.4506331 74.1449951,21.4506331 C73.7123869,21.4506331 73.2767745,21.4923412 72.8531789,21.5429868 C72.9012465,21.1199473 72.9493141,20.6939287 72.9493141,20.2589726 C72.9493141,14.3513159 68.0884799,9.53402847 62.1280998,9.53402847 C58.9826775,9.53402847 56.0715846,10.8955005 54.0557504,13.1626346 L52.1390556,11.2678944 L43.1053545,2.29469117 C40.0049956,-0.764897058 34.9849375,-0.764897058 31.9116166,2.29469117 L2.3140034,31.6423092 C-0.771334468,34.7048765 -0.771334468,39.6860173 2.3140034,42.7426263 L23.1543041,63.4149562 C19.9037339,65.265009 17.6745998,68.7089078 17.6745998,72.6890537 C17.6745998,76.4129926 19.5973031,79.7019755 22.5234171,81.6265072 C22.6616114,81.820152 22.8388606,82.0108177 23.0611732,82.2044625 L48.9155234,107.738767 L48.9155234,112.019807 L44.1147738,112.019807 L44.1147738,143 L106.590612,143 L106.590612,112.019807 L101.792867,112.019807 L101.792867,104.792386 C106.392334,100.928427 109,95.3782689 109,89.3752793 C109,85.2342592 107.696167,81.1915511 105.313817,77.8102145 L106.686748,76.4487425 C108.176843,74.9681043 109,72.9988854 109,70.8926256 Z" id="Fill-5"></path>
                </g>
            </g>
        </g>
    </g>
</svg>