<svg width="86" height="20" xmlns="http://www.w3.org/2000/svg"><path d="M74.737 14.692c.54.007.935-.106 1.184-.338.25-.232.375-.608.375-1.128V7.3c.013-.444-.083-.726-.288-.846-.205-.12-.615-.172-1.23-.159v-.338a12.236 12.236 0 0 0 1.738-.466c.632-.216 1.16-.423 1.584-.62v1.64c.445-.43.95-.795 1.518-1.092a4.083 4.083 0 0 1 1.835-.467c.97.034 1.632.349 1.984.944.352.594.518 1.247.498 1.958v5.373c-.014.444.068.798.246 1.061.177.264.543.399 1.097.405V15h-4.666v-.308c.616 0 1.026-.123 1.23-.369.206-.246.302-.612.288-1.097V8.273c.007-.622-.13-1.124-.41-1.507-.28-.383-.732-.58-1.354-.595-.526.014-.974.13-1.343.349-.37.219-.677.479-.923.78v5.926c-.013.52.08.896.282 1.128.202.232.583.345 1.143.338V15h-4.788v-.308zM72.75 5.833c-.226.253-.559.981-1 2.184a260.56 260.56 0 0 0-1.471 4.138 93.293 93.293 0 0 1-1.605 4.301c-.53 1.313-1.007 2.198-1.43 2.656-.342.321-.696.542-1.062.661-.365.12-.668.18-.907.18-.417-.014-.725-.122-.923-.323-.198-.202-.3-.47-.308-.805a.97.97 0 0 1 .231-.626c.147-.17.368-.256.662-.256.355.007.608.058.758.154.15.095.36.153.626.174.355.027.671-.173.948-.6.277-.427.675-1.263 1.195-2.507-.991-2.304-1.774-4.113-2.348-5.43a73.923 73.923 0 0 0-1.303-2.865c-.293-.595-.52-.966-.676-1.113-.158-.147-.315-.207-.472-.18V5.25h4.378v.328c-.505.006-.832.075-.979.205-.147.13-.213.273-.2.43 0 .164.093.51.277 1.036.185.526.412 1.137.682 1.83.27.694.538 1.366.805 2.015.267.65.492 1.193.677 1.63.341-.93.765-2.13 1.271-3.604.506-1.473.783-2.442.83-2.907a.496.496 0 0 0-.204-.446c-.15-.12-.462-.183-.933-.19V5.25h3.106v.328a.997.997 0 0 0-.343.05.764.764 0 0 0-.282.206zm-13.881 9.423h-.37l-2.481-6.1-2.646 6.1h-.379A321.852 321.852 0 0 1 50.947 9.9a91.75 91.75 0 0 0-1.102-2.887c-.253-.615-.468-1.008-.646-1.179a.715.715 0 0 0-.625-.205v-.38h3.835v.329c-.438.013-.7.094-.785.24a.665.665 0 0 0-.097.436c0 .171.058.441.174.81.116.37.277.817.482 1.344.205.526.444 1.12.718 1.784.273.663.57 1.38.892 2.153l1.764-4.204c-.397-1.23-.725-1.979-.985-2.245a1.05 1.05 0 0 0-.953-.318V5.25h4.583v.328c-.588.006-.95.085-1.087.236a.647.647 0 0 0-.174.522c0 .185.084.515.251.99.168.475.37 1.013.61 1.615.24.602.482 1.19.728 1.764.246.574.445 1.049.595 1.425.383-.875.824-1.988 1.323-3.338s.772-2.21.82-2.579a.523.523 0 0 0-.092-.446c-.096-.12-.445-.183-1.046-.19V5.25h2.902v.379c-.144-.034-.284.008-.42.128-.137.12-.332.463-.585 1.03-.253.568-.63 1.52-1.128 2.856a393.922 393.922 0 0 0-2.03 5.614zm-14.251 0v-1.363a3.74 3.74 0 0 1-1.297.938c-.523.236-1.113.36-1.769.374-1.36-.055-2.367-.547-3.02-1.476-.653-.93-.976-2.007-.969-3.23.007-1.518.405-2.81 1.195-3.876.79-1.067 1.93-1.624 3.42-1.672.56 0 1.032.089 1.415.267.382.178.724.424 1.025.738v-3.61c.041-.211-.007-.433-.144-.666-.136-.232-.594-.359-1.374-.38v-.297a35.665 35.665 0 0 0 1.692-.425c.5-.14 1.043-.333 1.63-.58v13.064c-.013.362.064.602.231.718.168.116.498.17.99.164l.015.133a.382.382 0 0 1-.015.195c-.568.164-1.075.321-1.523.472-.448.15-.948.32-1.502.512zm0-7.28c0-.52-.2-1.039-.6-1.559-.4-.52-1-.8-1.8-.84-.943.034-1.654.406-2.132 1.117-.479.711-.718 1.559-.718 2.543-.014 1.21.224 2.31.713 3.297.488.988 1.314 1.512 2.476 1.574.472-.014.889-.11 1.25-.287.363-.178.633-.376.811-.595v-5.25zm-10.723 5.25c-.014.485.072.851.256 1.097.185.246.574.37 1.169.37V15h-4.748v-.308c.582.007.981-.106 1.2-.338.219-.232.321-.608.308-1.128V2.562c.013-.547-.075-.892-.267-1.036-.191-.143-.564-.205-1.117-.184v-.339A16.314 16.314 0 0 0 33.895 0v13.227zM23.623 4.951C25.18 5 26.36 5.51 27.16 6.484c.8.974 1.203 2.114 1.21 3.42.02 1.38-.362 2.603-1.148 3.666-.786 1.063-2.082 1.625-3.886 1.686-1.6-.048-2.805-.555-3.615-1.522-.81-.968-1.215-2.172-1.215-3.615.007-1.429.45-2.637 1.328-3.625.878-.987 2.141-1.502 3.789-1.543zm-3.19 4.45c-.02 1.067.207 2.19.683 3.369.475 1.179 1.31 1.82 2.507 1.922 1.182-.04 1.956-.452 2.322-1.235.366-.783.532-1.7.497-2.753.014-1.04-.227-2.137-.722-3.292-.496-1.155-1.335-1.78-2.518-1.876-1.011.047-1.73.461-2.153 1.24-.424.78-.629 1.655-.615 2.625zm-7.913-.246c.014-.58-.135-.982-.446-1.205-.311-.222-.89-.326-1.738-.312v-.42h6.214v.42c-.677-.007-1.144.102-1.4.328-.256.225-.378.608-.364 1.148v4.45c-.636.438-1.456.83-2.46 1.175-1.006.345-2.161.531-3.467.558-2.55-.054-4.5-.769-5.85-2.143C1.66 11.78.979 10.041.965 7.935c.034-2.27.767-4.108 2.2-5.517C4.594 1.01 6.52.286 8.94.245c1.258.034 2.166.18 2.723.44.557.26 1.023.407 1.4.441.246-.006.43-.08.553-.22.123-.14.205-.316.246-.528h.328l.257 4.41h-.462c-.273-.89-.77-1.724-1.492-2.503-.72-.78-1.779-1.193-3.173-1.24-2.16.081-3.693.804-4.6 2.168-.905 1.364-1.344 2.897-1.317 4.599 0 1.784.474 3.34 1.42 4.666.947 1.326 2.378 2.023 4.292 2.091.738-.007 1.394-.114 1.968-.323.575-.208 1.053-.466 1.436-.774V9.155z" fill="#FFF" fill-rule="evenodd"/></svg>