<svg width="242" height="75" xmlns="http://www.w3.org/2000/svg" xmlns:xlink="http://www.w3.org/1999/xlink"><defs><path id="a" d="M0 .36h69.32V75H0z"/></defs><g fill="none" fill-rule="evenodd"><path d="M34.66 1c18.59 0 33.66 16.261 33.66 36.32S53.25 73.64 34.66 73.64C16.07 73.64 1 57.379 1 37.32S16.07 1 34.66 1" fill="#9FC46C"/><g transform="translate(0 -.36)"><mask id="b" fill="#fff"><use xlink:href="#a"/></mask><path d="M34.66 2.36C16.651 2.36 2 18.204 2 37.68 2 57.155 16.651 73 34.66 73c18.01 0 32.66-15.845 32.66-35.32 0-19.476-14.65-35.32-32.66-35.32m0 72.64C15.548 75 0 58.258 0 37.68S15.548.36 34.66.36c19.111 0 34.66 16.742 34.66 37.32S53.771 75 34.66 75" fill="#FFF" mask="url(#b)"/></g><path d="M55.32 32.14a167.67 167.67 0 0 1-4.11 7.15c-1.42 2.34-2.91 4.65-4.51 6.87a60.644 60.644 0 0 1-5.12 6.32 24.099 24.099 0 0 1-2.95 2.69 11.3 11.3 0 0 1-3.31 1.85 4.76 4.76 0 0 1-3.35 0 6.6 6.6 0 0 1-2.77-2.17 21.57 21.57 0 0 1-3.33-7.06 70.198 70.198 0 0 1-2.565-15.109l5.885-.18 6.82-.26c4.55-.16 9.09-.39 13.64-.46h.41l-.07-.39c-.426-2.568-.94-5.12-1.54-7.66a24.119 24.119 0 0 0-2.87-7.35 4.736 4.736 0 0 0-1.55-1.46 2.79 2.79 0 0 0-2.26-.26 5.085 5.085 0 0 0-1.88 1.09c-.513.456-.985.958-1.41 1.5a29.58 29.58 0 0 0-3.16 5.372 29.52 29.52 0 0 0-1.88-2.893 10.998 10.998 0 0 0-4.1-3.58 4.679 4.679 0 0 0-3-.3 5.706 5.706 0 0 0-2.54 1.44 14.603 14.603 0 0 0-3 4.41 48.389 48.389 0 0 0-3.13 9.73c-.39 1.66-.67 3.35-.94 5-.27 1.65-.5 3.32-.64 5l.19.03c.66-3.3 1.457-6.56 2.39-9.78a50.942 50.942 0 0 1 3.49-9.31 13.456 13.456 0 0 1 2.75-3.84 3.19 3.19 0 0 1 3.71-.77 9.997 9.997 0 0 1 3.38 3 34.907 34.907 0 0 1 2.66 4.12l.9 1.6.64-1.71a30.23 30.23 0 0 1 3.31-6.78 6.19 6.19 0 0 1 2.56-2.34c1-.42 2.05.26 2.8 1.21a20.535 20.535 0 0 1 3 7c.626 2.36 1.017 4.783 1.406 7.201-4.42.048-8.837-.08-13.256-.08l-6.83-.06h-7.74v.93c.155 5.6.953 11.162 2.38 16.58.742 2.803 2 5.445 3.71 7.79a8.718 8.718 0 0 0 3.71 2.77 6.869 6.869 0 0 0 4.73-.05 13.21 13.21 0 0 0 3.8-2.29 26.844 26.844 0 0 0 3.06-3 53.04 53.04 0 0 0 5-6.72 101.205 101.205 0 0 0 7.67-14.71l-.19-.08z" fill="#FFF"/><path d="M100.528 46.35v-9.433l-3.84 4.267h-.922l-3.908-4.267v9.433h-3.122V31.189h1.37l6.11 6.492 6.064-6.492h1.37v15.16zm9.299-5.593c0 1.707 1.123 3.077 2.83 3.077 1.505 0 2.942-1.258 2.92-3.302v-1.617c-.809-.853-1.752-1.414-2.853-1.414-1.774 0-2.897 1.549-2.897 3.256m5.75-4.47v-1.28h2.853V46.35h-2.853v-1.91c-.674 1.213-1.954 2.247-3.639 2.247-2.717 0-5.076-2.157-5.076-5.93 0-3.795 2.36-6.042 5.278-6.042 1.236 0 2.583.629 3.437 1.573m13.746-1.191v3.256a2.967 2.967 0 0 0-1.752-.56c-1.303 0-2.11.965-2.785 2.222v6.334h-2.853V35.007h2.853v2.134c.786-1.348 1.842-2.358 3.19-2.358.516 0 .943.112 1.347.314m2.471-4.065c0-1.056.876-1.932 1.977-1.932 1.055 0 1.976.876 1.976 1.932 0 1.033-.921 1.932-1.976 1.932-1.101 0-1.977-.9-1.977-1.932zm3.594 15.183c0 3.1-1.483 4.942-4.066 5.862l-1.257-2.47c1.572-.742 2.47-1.685 2.47-3.28v-8.894h-1.82v-2.425h4.673v11.207zm5.929-5.503c0 2.066 1.415 3.212 3.032 3.212s3.055-1.146 3.055-3.212c0-2.066-1.438-3.234-3.055-3.234-1.617 0-3.032 1.168-3.032 3.234m9.12 0c0 3.347-2.786 5.975-6.088 5.975s-6.064-2.628-6.064-5.975c0-3.37 2.762-5.997 6.064-5.997s6.087 2.628 6.087 5.997m2.696 5.638h2.853V30.179h-2.853zm6.761-15.318c0-1.056.876-1.932 1.954-1.932 1.078 0 1.977.876 1.977 1.932 0 1.033-.9 1.932-1.977 1.932-1.078 0-1.954-.9-1.954-1.932zm3.549 15.318h-2.853v-8.917h-1.82v-2.425h4.673V46.35zm3.728-15.318c0-1.056.876-1.932 1.977-1.932 1.055 0 1.976.876 1.976 1.932 0 1.033-.921 1.932-1.976 1.932-1.101 0-1.977-.9-1.977-1.932zm3.594 15.183c0 3.1-1.483 4.942-4.066 5.862l-1.257-2.47c1.572-.742 2.47-1.685 2.47-3.28v-8.894h-1.82v-2.425h4.673v11.207zm14.038-6.828v6.963h-2.853l-.022-6.581c0-1.528-.786-2.268-2.066-2.268-1.011 0-1.91.763-2.561 1.66v7.189h-2.852V35.008h2.852v1.617c.696-.921 1.909-1.91 3.437-1.91 2.313 0 4.065 1.573 4.065 4.672m15.498 7.075L193.292 31.3h3.66l4.112 9.95 4.132-9.95h3.662l-7.008 15.16zm10.534-.112h2.853V30.179h-2.853zm16.351-4.583c0 3.032-2.179 4.874-5.12 4.874-2.942 0-5.121-1.842-5.121-4.874v-6.76h2.875l.022 6.244c0 1.752.898 2.628 2.224 2.628 1.325 0 2.224-.876 2.224-2.628v-6.243h2.897v6.76zm5.436-1.01c0 1.707 1.123 3.055 2.83 3.055 1.505 0 2.942-1.236 2.92-3.28v-1.617c-.809-.853-1.752-1.392-2.853-1.392-1.774 0-2.897 1.527-2.897 3.234m5.75-4.47v-1.28h2.853v11.05c0 3.842-2.965 6.02-6.312 6.02-1.999 0-3.324-.54-4.47-1.213v-2.695c1.011.494 2.381 1.28 4.29 1.28 2.022 0 3.64-1.257 3.64-3.032V44.44c-.675 1.212-1.955 2.246-3.64 2.246-2.717 0-5.076-2.157-5.076-5.93 0-3.795 2.36-6.042 5.278-6.042 1.236 0 2.583.629 3.437 1.573" fill="#272E66"/></g></svg>