<svg width="68" height="68" xmlns="http://www.w3.org/2000/svg"><path d="M28.947 44.749l14.964-10.255-14.964-10.255v20.51zM47.352 33.28c1.17.917.494 2.13 0 2.426L28.299 48.74A1.462 1.462 0 0 1 26 47.528V21.46c.127-1.65 1.706-1.65 2.299-1.213L47.352 33.28zM34 65.1c17.152 0 31.1-13.947 31.1-31.1C65.1 16.848 51.152 2.9 34 2.9S2.9 16.848 2.9 34c0 17.153 13.948 31.1 31.1 31.1zM34 0c18.748 0 34 15.252 34 34 0 18.748-15.252 34-34 34C15.252 68 0 52.748 0 34 0 15.252 15.252 0 34 0z" fill="#FFF" fill-rule="evenodd"/></svg>