<svg width="41" height="40" xmlns="http://www.w3.org/2000/svg"><path d="M20.738 0C9.789 0 .879 8.911.879 19.86c0 10.953 8.91 19.863 19.859 19.863 10.953 0 19.864-8.91 19.864-19.863C40.602 8.911 31.691 0 20.738 0zm8.864 15.317c.007.195.011.394.011.594 0 6.039-4.597 13.003-13.007 13.003-2.582 0-4.985-.753-7.008-2.054a9.17 9.17 0 0 0 6.769-1.891 4.578 4.578 0 0 1-4.269-3.176c.277.055.562.082.859.082.414 0 .82-.054 1.203-.16a4.572 4.572 0 0 1-3.668-4.48c0-.02 0-.039.004-.059a4.51 4.51 0 0 0 2.071.57 4.577 4.577 0 0 1-1.418-6.101 12.98 12.98 0 0 0 9.421 4.777 4.593 4.593 0 0 1-.117-1.043 4.571 4.571 0 0 1 7.906-3.129 9.037 9.037 0 0 0 2.907-1.109 4.591 4.591 0 0 1-2.012 2.531 9.06 9.06 0 0 0 2.625-.718 9.3 9.3 0 0 1-2.277 2.363z" fill="#FFF" fill-rule="evenodd"/></svg>