<svg width="40" height="40" xmlns="http://www.w3.org/2000/svg" xmlns:xlink="http://www.w3.org/1999/xlink"><defs><path id="a" d="M.06.278h39.663v39.723H.06z"/></defs><g fill="none" fill-rule="evenodd"><path d="M23.085 17c-1.699 0-2.46.934-2.886 1.59v-1.363H17c.039.902 0 9.633 0 9.633h3.199v-5.379c0-.289.019-.578.105-.781.231-.578.758-1.172 1.645-1.172 1.156 0 1.621.883 1.621 2.176v5.156h3.203v-5.528c0-2.957-1.582-4.332-3.688-4.332z" fill="#FFF"/><mask id="b" fill="#fff"><use xlink:href="#a"/></mask><path fill="#FFF" mask="url(#b)" d="M12.418 27.177h3.203v-9.633h-3.203z"/><path d="M19.859.278C8.91.278 0 9.189 0 20.138c0 10.953 8.91 19.863 19.859 19.863 10.953 0 19.864-8.91 19.864-19.863 0-10.949-8.911-19.86-19.864-19.86zm10.536 28.844c0 .844-.704 1.527-1.571 1.527H10.762c-.864 0-1.567-.683-1.567-1.527V10.849c0-.844.703-1.532 1.567-1.532h18.062c.867 0 1.571.688 1.571 1.532v18.273z" fill="#FFF" mask="url(#b)"/><path d="M13.809 13C12.715 13 12 13.719 12 14.665c0 .925.696 1.664 1.77 1.664h.02c1.117 0 1.812-.739 1.812-1.664-.023-.946-.695-1.665-1.793-1.665z" fill="#FFF"/></g></svg>