<svg width="40" height="40" xmlns="http://www.w3.org/2000/svg" xmlns:xlink="http://www.w3.org/1999/xlink"><defs><path id="a" d="M.06.278h39.663v39.723H.06z"/></defs><g fill="none" fill-rule="evenodd"><path d="M19.976 23.949a3.98 3.98 0 0 0 3.977-3.976c0-.864-.281-1.664-.75-2.317A3.977 3.977 0 0 0 19.976 16c-1.324 0-2.5.652-3.222 1.656A3.966 3.966 0 0 0 16 19.973a3.98 3.98 0 0 0 3.976 3.976z" fill="#FFF"/><mask id="b" fill="#fff"><use xlink:href="#a"/></mask><path fill="#FFF" mask="url(#b)" d="M28.543 15.274v-3.828h-.5l-3.332.012.016 3.828z"/><path d="M19.859.278C8.91.278 0 9.189 0 20.138c0 10.953 8.91 19.863 19.859 19.863 10.953 0 19.864-8.91 19.864-19.863 0-10.949-8.911-19.86-19.864-19.86zm11.297 17.543v9.25a4.369 4.369 0 0 1-4.367 4.364H12.93a4.368 4.368 0 0 1-4.364-4.364V13.212a4.369 4.369 0 0 1 4.364-4.367h13.859a4.37 4.37 0 0 1 4.367 4.367v4.609z" fill="#FFF" mask="url(#b)"/><path d="M26.273 20.317a6.185 6.185 0 0 1-6.18 6.179c-3.406 0-6.175-2.773-6.175-6.179 0-.817.164-1.602.453-2.317H11v9.25a2.16 2.16 0 0 0 2.164 2.161h13.859a2.161 2.161 0 0 0 2.164-2.161V18h-3.371c.289.715.457 1.5.457 2.317z" fill="#FFF"/></g></svg>