<svg width="109" height="143" xmlns="http://www.w3.org/2000/svg"><g fill="#FFF" fill-rule="evenodd"><path d="M80.507 73.75a4.75 4.75 0 0 1 4.742 4.746 4.756 4.756 0 0 1-4.742 4.747 4.757 4.757 0 0 1-4.753-4.747 4.75 4.75 0 0 1 4.753-4.745m0 14.249C85.736 88 90 83.73 90 78.496 90 73.264 85.736 69 80.507 69 75.267 69 71 73.264 71 78.496 71 83.73 75.267 88 80.507 88M22.496 29c.65 0 1.283-.256 1.77-.73l5-5.005a2.5 2.5 0 0 0 0-3.537 2.51 2.51 0 0 0-3.535 0l-4.99 5.004c-.988.971-.988 2.545 0 3.537a2.513 2.513 0 0 0 1.755.731"/><path d="M101.946 60.644l-8.439-8.371a6.009 6.009 0 0 1 4.672-2.223c3.322 0 6.02 2.67 6.02 5.959 0 1.829-.859 3.53-2.253 4.635zm-4.002 41.104l-.96.72v9.552h-43.26v-6.483l-.856-.706a6.034 6.034 0 0 0-.433-.337L31.1 83.417h12.228l22.567 22.376a7.92 7.92 0 0 0 5.597 2.297c2.02 0 4.05-.768 5.6-2.297l24.761-24.55a15.295 15.295 0 0 1 2.346 8.132c0 4.901-2.289 9.405-6.255 12.373zM48.913 138.23h52.88v-21.447h-52.88v21.447zm-26.44-65.54c0-2.84 2.033-5.214 4.719-5.807l.997-.116c.094-.012.202-.036.292-.036h24.034c3.322 0 6.008 2.672 6.008 5.958 0 3.289-2.686 5.958-6.008 5.958H28.48c-3.308 0-6.009-2.669-6.009-5.958zm-7.719-24.347L48.75 14.64l54.533 54.08c1.21 1.195 1.21 3.153 0 4.365l-1.055 1.031-28.54 28.302a3.115 3.115 0 0 1-4.404 0l-19.16-19.001h2.39c5.964 0 10.822-4.82 10.822-10.728 0-5.914-4.858-10.722-10.821-10.722h-24.02l-13.74-13.624zM5.718 39.38a3.055 3.055 0 0 1 0-4.364L35.3 5.67a3.356 3.356 0 0 1 1.022-.68c.174-.065.363-.053.54-.103a3.553 3.553 0 0 1 1.28 0c.175.05.36.038.538.104.367.152.718.384 1.022.68l5.645 5.597-33.984 33.709-5.645-5.598zM62.14 14.301c3.31 0 6.009 2.669 6.009 5.958 0 1.83-.86 3.53-2.254 4.636l-8.438-8.372a6.01 6.01 0 0 1 4.683-2.222zm12.005 11.916c3.323 0 6.02 2.67 6.02 5.959 0 1.829-.859 3.53-2.253 4.635l-8.439-8.371a6.009 6.009 0 0 1 4.672-2.223zm12.017 11.917c3.323 0 6.02 2.67 6.02 5.958 0 1.83-.859 3.53-2.253 4.636l-8.439-8.372a6.009 6.009 0 0 1 4.672-2.222zM109 70.893a7.794 7.794 0 0 0-2.313-5.55l-1.352-1.323c2.292-2.002 3.665-4.904 3.665-8.011 0-5.908-4.86-10.725-10.821-10.725-.433 0-.868.042-1.292.092.048-.423.096-.849.096-1.284 0-5.907-4.86-10.725-10.821-10.725-.433 0-.868.042-1.292.093.048-.423.096-.85.096-1.284 0-5.908-4.86-10.725-10.821-10.725-.433 0-.868.041-1.292.092.048-.423.096-.85.096-1.284 0-5.908-4.86-10.725-10.82-10.725a10.79 10.79 0 0 0-8.073 3.629l-1.917-1.895-9.034-8.973c-3.1-3.06-8.12-3.06-11.193 0L2.314 31.642a7.813 7.813 0 0 0 0 11.1l20.84 20.673c-3.25 1.85-5.48 5.294-5.48 9.274 0 3.724 1.923 7.013 4.85 8.938.138.193.315.384.537.577l25.855 25.535v4.28h-4.801V143h62.476v-30.98h-4.798v-7.228c4.6-3.864 7.207-9.414 7.207-15.417a20.11 20.11 0 0 0-3.686-11.565l1.373-1.361A7.774 7.774 0 0 0 109 70.893z"/></g></svg>